<svg width="24" height="24" viewBox="0 0 24 24" fill="none" xmlns="http://www.w3.org/2000/svg">
<path d="M12.1145 7.73432C11.4035 7.73432 10.3029 6.92592 9.14387 6.95514C7.61472 6.97462 6.21219 7.84146 5.42327 9.21476C3.83569 11.9711 5.0142 16.0423 6.56283 18.2825C7.32253 19.3733 8.21859 20.6006 9.40684 20.5616C10.5464 20.5129 10.9749 19.8214 12.358 19.8214C13.7313 19.8214 14.1209 20.5616 15.3286 20.5324C16.5558 20.5129 17.335 19.422 18.085 18.3214C18.9518 17.0553 19.3122 15.8281 19.3317 15.7599C19.3024 15.7501 16.9454 14.8443 16.9162 12.1172C16.8967 9.83811 18.7765 8.74725 18.8642 8.69855C17.7928 7.13045 16.1468 6.95514 15.5721 6.91618C14.0722 6.7993 12.8158 7.73432 12.1145 7.73432ZM14.6468 5.43573C15.2799 4.67603 15.6987 3.6144 15.5819 2.5625C14.6761 2.60146 13.5852 3.16637 12.9326 3.92607C12.3482 4.59811 11.8418 5.67923 11.9781 6.71164C12.9813 6.78956 14.0138 6.19543 14.6468 5.43573Z" fill="white"/>
</svg>
