<svg width="25" height="24" viewBox="0 0 25 24" fill="none" xmlns="http://www.w3.org/2000/svg">
<path d="M3.54698 12.9374C2.78297 11.5101 2.5574 9.85572 2.91141 8.27596C3.26542 6.6962 4.17542 5.29629 5.47548 4.3315C6.77554 3.36672 8.37905 2.90132 9.99362 3.02018C11.6082 3.13904 13.1263 3.83423 14.271 4.97899C15.4158 6.12375 16.111 7.64183 16.2298 9.2564C16.3487 10.871 15.8833 12.4745 14.9185 13.7745C13.9537 15.0746 12.5538 15.9846 10.9741 16.3386C9.3943 16.6926 7.73993 16.4671 6.3126 15.703L3.7101 16.468C3.58087 16.506 3.44381 16.5084 3.31331 16.4751C3.18281 16.4418 3.06368 16.374 2.96845 16.2788C2.87321 16.1835 2.80538 16.0644 2.77207 15.9339C2.73876 15.8034 2.74121 15.6663 2.77916 15.5371L3.54698 12.9374Z" stroke="#808080" stroke-width="1.5" stroke-linecap="round" stroke-linejoin="round"/>
<path d="M15.8696 7.51025C17.0035 7.5719 18.1036 7.91863 19.0679 8.51835C20.0322 9.11807 20.8297 9.95139 21.3864 10.9412C21.9431 11.9309 22.2411 13.0452 22.2528 14.1807C22.2645 15.3163 21.9896 16.4364 21.4534 17.4374L22.2184 20.0399C22.2563 20.1692 22.2588 20.3062 22.2255 20.4367C22.1921 20.5672 22.1243 20.6864 22.0291 20.7816C21.9338 20.8768 21.8147 20.9447 21.6842 20.978C21.5537 21.0113 21.4166 21.0088 21.2874 20.9709L18.6877 20.2031C17.829 20.6623 16.8811 20.9305 15.909 20.9891C14.9369 21.0477 13.9636 20.8955 13.0559 20.5428C12.1481 20.1901 11.3274 19.6452 10.6499 18.9456C9.97243 18.246 9.45424 17.4082 9.13086 16.4896" stroke="#808080" stroke-width="1.5" stroke-linecap="round" stroke-linejoin="round"/>
</svg>
