<svg width="108" height="108" viewBox="0 0 108 108" fill="none" xmlns="http://www.w3.org/2000/svg">
<g clip-path="url(#clip0_717_11450)">
<path d="M53.7527 0C24.0659 0 0 24.0659 0 53.7527C29.6868 53.7527 53.7527 29.6868 53.7527 0Z" fill="#E3E3E3"/>
<path d="M53.7525 107.505C83.4393 107.505 107.505 83.439 107.505 53.7522C77.8184 53.7522 53.7525 77.8181 53.7525 107.505Z" fill="#E3E3E3"/>
<path d="M53.7525 0C83.4393 0 107.505 24.0659 107.505 53.7527C77.8184 53.7527 53.7525 29.6868 53.7525 0Z" fill="white"/>
<path d="M53.7527 107.505C24.0659 107.505 -2.5953e-06 83.439 0 53.7522C29.6868 53.7522 53.7527 77.8181 53.7527 107.505Z" fill="white"/>
</g>
<defs>
<clipPath id="clip0_717_11450">
<rect width="108" height="107.505" fill="white"/>
</clipPath>
</defs>
</svg>
