<svg width="618" height="640" viewBox="0 0 618 640" fill="none" xmlns="http://www.w3.org/2000/svg">
<g clip-path="url(#clip0_1088_17989)">
<path d="M463.297 440.78C463.953 426.265 464.609 411.74 465.275 397.225C465.508 392.052 465.741 386.889 465.974 381.716C475.082 379.145 484.191 376.574 493.3 374.004L546.651 358.96C527.872 396.633 499.89 423.747 463.297 440.78Z" fill="white"/>
<path d="M463.297 440.78C463.953 426.265 464.609 411.74 465.275 397.225C465.508 392.052 465.741 386.889 465.974 381.716C475.082 379.145 484.191 376.574 493.3 374.004L546.651 358.96C527.872 396.633 499.89 423.747 463.297 440.78Z" fill="url(#paint0_radial_1088_17989)"/>
<path d="M583.995 573.009C563.333 611.031 523.048 636.844 476.732 636.844H468.178C460.677 636.844 454.693 630.583 455.032 623.09C457.212 574.908 459.399 526.726 461.587 478.544C461.828 473.236 465.253 468.627 470.172 466.617C500.427 454.254 525.733 436.089 545.859 411.937C553.28 403.032 568.744 405.352 571.803 416.533C578.784 442.047 585.769 467.565 592.754 493.083C600.086 519.87 597.25 548.603 583.995 573.009Z" fill="white"/>
<path d="M583.995 573.009C563.333 611.031 523.048 636.844 476.732 636.844H468.178C460.677 636.844 454.693 630.583 455.032 623.09C457.212 574.908 459.399 526.726 461.587 478.544C461.828 473.236 465.253 468.627 470.172 466.617C500.427 454.254 525.733 436.089 545.859 411.937C553.28 403.032 568.744 405.352 571.803 416.533C578.784 442.047 585.769 467.565 592.754 493.083C600.086 519.87 597.25 548.603 583.995 573.009Z" fill="url(#paint1_radial_1088_17989)"/>
<path d="M68.8616 359.108C86.2327 364.017 103.604 368.915 120.975 373.813C130.316 376.448 139.647 379.082 148.989 381.716C149.221 386.826 149.454 391.946 149.687 397.056C150.343 411.719 151.009 426.381 151.676 441.044C149.443 439.986 147.222 438.854 145.021 437.68C110.649 419.283 85.27 393.078 68.8616 359.108Z" fill="white"/>
<path d="M68.8616 359.108C86.2327 364.017 103.604 368.915 120.975 373.813C130.316 376.448 139.647 379.082 148.989 381.716C149.221 386.826 149.454 391.946 149.687 397.056C150.343 411.719 151.009 426.381 151.676 441.044C149.443 439.986 147.222 438.854 145.021 437.68C110.649 419.283 85.27 393.078 68.8616 359.108Z" fill="url(#paint2_radial_1088_17989)"/>
<path d="M159.918 623.088C160.257 630.582 154.273 636.844 146.771 636.844H138.219C91.9033 636.844 51.6177 611.031 30.9565 573.009C17.7008 548.603 14.8656 519.87 22.197 493.083C29.1797 467.558 36.1679 442.033 43.1537 416.512C46.2298 405.274 61.8779 402.974 69.3439 411.919C85.1704 430.881 104.734 446.604 128.042 459.081C133.573 462.044 139.182 464.696 144.863 467.069C149.75 469.111 153.154 473.705 153.394 478.996C155.571 527.029 157.741 575.055 159.918 623.088Z" fill="white"/>
<path d="M159.918 623.088C160.257 630.582 154.273 636.844 146.771 636.844H138.219C91.9033 636.844 51.6177 611.031 30.9565 573.009C17.7008 548.603 14.8656 519.87 22.197 493.083C29.1797 467.558 36.1679 442.033 43.1537 416.512C46.2298 405.274 61.8779 402.974 69.3439 411.919C85.1704 430.881 104.734 446.604 128.042 459.081C133.573 462.044 139.182 464.696 144.863 467.069C149.75 469.111 153.154 473.705 153.394 478.996C155.571 527.029 157.741 575.055 159.918 623.088Z" fill="url(#paint3_radial_1088_17989)"/>
<path d="M614.316 238.601C614.4 232.041 611.819 227.937 606.032 225.387C600.721 223.06 595.495 220.552 590.206 218.183C578.537 212.967 566.857 207.783 555.527 202.737C542.525 146.699 508.862 107.789 458.833 81.5311V76.379C458.791 58.9445 458.95 41.4994 458.537 24.0755C458.442 20.0871 457.098 15.6967 455.046 12.2479C448.307 0.896424 435.654 -1.37811 422.97 1.04453C417.955 1.99666 413.808 3.95381 410.518 6.76788C406.096 10.5552 403.208 15.8977 401.811 22.5203C400.425 29.1535 399.674 35.9136 398.585 42.6102C398.532 42.9911 398.468 43.3613 398.405 43.7422C397.463 49.3492 396.352 54.935 395.242 60.9863C336.231 56.67 277.791 56.2151 219.394 61.2085C218.675 58.8493 218.051 57.3894 217.786 55.866C217.056 51.5285 216.273 47.191 215.522 42.843C214.422 36.4954 213.375 30.1479 212.581 23.7581C211.629 16.1199 208.434 10.1955 203.229 6.18602C200.944 4.4193 198.257 3.02284 195.21 2.01782C184.07 -1.67432 172.994 -0.6693 163.578 7.5719C157.813 12.6076 156.173 19.1879 156.215 26.551C156.321 44.8424 156.257 63.1339 156.257 81.3936C105.308 107.196 72.0258 146.752 59.299 202.927C57.5006 203.784 55.628 204.726 53.7132 205.583C40.1189 211.708 26.6304 218.098 12.8775 223.832C4.08616 227.492 0.235331 233.025 0.669079 242.843C1.34615 258.489 0.859504 274.189 0.838346 289.857C0.817187 308.476 1.35673 309.333 18.4633 317.098C18.9394 317.31 19.4577 317.447 19.9338 317.67C33.0626 323.943 46.1914 330.227 59.5423 336.617C60.029 337.886 60.6214 339.346 61.161 340.817C63.4566 347.143 66.0274 353.226 68.8626 359.087C85.271 393.057 110.65 419.262 145.022 437.659C147.223 438.833 149.444 439.965 151.677 441.023C180.272 454.797 211.047 460.097 242.552 462.478C285.736 466.72 328.921 466.35 372.115 462.626C389.053 460.055 406.265 458.68 422.853 454.691C437.326 451.211 450.814 446.577 463.298 440.759C499.891 423.726 527.873 396.612 546.651 358.939C549.677 352.898 552.449 346.593 554.988 340.002C555.866 337.738 558.257 335.527 560.499 334.427C575.776 326.905 591.179 319.648 606.593 312.401C611.988 309.873 614.379 305.916 614.326 299.886C614.146 279.457 614.051 259.029 614.316 238.601ZM421.023 393.618C397.209 400.209 372.845 403.372 348.259 404.049C322.065 404.768 295.787 405.033 269.614 403.964C241.23 402.811 212.983 399.595 185.731 390.634C146.778 377.833 123.43 351.068 116.554 310.931C110.566 276.009 110.915 240.907 119.325 206.271C129.386 164.874 156.808 141.314 197.559 132.66C233.898 124.948 270.915 125.128 319.399 124.557C332.306 125.139 356.776 125.742 381.161 127.487C400.901 128.894 420.547 131.645 439.082 139.357C471.253 152.75 488.931 177.95 496.643 210.904C501.764 232.793 501.986 255.136 501.393 277.511C500.896 296.204 498.823 314.623 492.147 332.216C479.526 365.445 454.432 384.382 421.023 393.618Z" fill="white"/>
<path d="M207.873 279.637V240.158C207.873 221.988 222.602 207.259 240.772 207.259C258.941 207.259 273.671 221.988 273.671 240.158V279.637C273.671 297.807 258.941 312.536 240.772 312.536C222.602 312.536 207.873 297.807 207.873 279.637Z" fill="url(#paint4_radial_1088_17989)"/>
<path d="M339.469 277.992V241.803C339.469 222.725 354.935 207.259 374.013 207.259C393.091 207.259 408.557 222.725 408.557 241.803V277.992C408.557 297.07 393.091 312.536 374.013 312.536C354.935 312.536 339.469 297.07 339.469 277.992Z" fill="url(#paint5_radial_1088_17989)"/>
</g>
<defs>
<radialGradient id="paint0_radial_1088_17989" cx="0" cy="0" r="1" gradientUnits="userSpaceOnUse" gradientTransform="translate(137.947 910.449) rotate(-82.7368) scale(857.903 1031.11)">
<stop stop-color="#00A3A4"/>
<stop offset="0.315013" stop-color="#00BCA1"/>
<stop offset="0.735013" stop-color="#20639B"/>
<stop offset="1" stop-color="#1C2895"/>
</radialGradient>
<radialGradient id="paint1_radial_1088_17989" cx="0" cy="0" r="1" gradientUnits="userSpaceOnUse" gradientTransform="translate(137.947 910.449) rotate(-82.7368) scale(857.903 1031.11)">
<stop stop-color="#00A3A4"/>
<stop offset="0.315013" stop-color="#00BCA1"/>
<stop offset="0.735013" stop-color="#20639B"/>
<stop offset="1" stop-color="#1C2895"/>
</radialGradient>
<radialGradient id="paint2_radial_1088_17989" cx="0" cy="0" r="1" gradientUnits="userSpaceOnUse" gradientTransform="translate(137.947 910.449) rotate(-82.7368) scale(857.903 1031.11)">
<stop stop-color="#00A3A4"/>
<stop offset="0.315013" stop-color="#00BCA1"/>
<stop offset="0.735013" stop-color="#20639B"/>
<stop offset="1" stop-color="#1C2895"/>
</radialGradient>
<radialGradient id="paint3_radial_1088_17989" cx="0" cy="0" r="1" gradientUnits="userSpaceOnUse" gradientTransform="translate(137.947 910.449) rotate(-82.7368) scale(857.903 1031.11)">
<stop stop-color="#00A3A4"/>
<stop offset="0.315013" stop-color="#00BCA1"/>
<stop offset="0.735013" stop-color="#20639B"/>
<stop offset="1" stop-color="#1C2895"/>
</radialGradient>
<radialGradient id="paint4_radial_1088_17989" cx="0" cy="0" r="1" gradientUnits="userSpaceOnUse" gradientTransform="translate(249.401 416.192) rotate(-83.3432) scale(324.6 358.182)">
<stop stop-color="#00A3A4"/>
<stop offset="0.315013" stop-color="#00BCA1"/>
<stop offset="0.735013" stop-color="#20639B"/>
<stop offset="1" stop-color="#1C2895"/>
</radialGradient>
<radialGradient id="paint5_radial_1088_17989" cx="0" cy="0" r="1" gradientUnits="userSpaceOnUse" gradientTransform="translate(249.401 416.192) rotate(-83.3432) scale(324.6 358.182)">
<stop stop-color="#00A3A4"/>
<stop offset="0.315013" stop-color="#00BCA1"/>
<stop offset="0.735013" stop-color="#20639B"/>
<stop offset="1" stop-color="#1C2895"/>
</radialGradient>
<clipPath id="clip0_1088_17989">
<rect width="616.728" height="640" fill="white" transform="translate(0.63623)"/>
</clipPath>
</defs>
</svg>
