<svg width="25" height="24" viewBox="0 0 25 24" fill="none" xmlns="http://www.w3.org/2000/svg">
<path d="M23.479 5.68867C22.7618 4.45211 20.868 4.17367 17.9946 4.8768C16.5852 3.7912 14.8857 3.14765 13.1108 3.02742C11.3359 2.90719 9.56511 3.31568 8.02222 4.20129C6.47932 5.0869 5.2335 6.4099 4.44211 8.00318C3.65072 9.59646 3.34927 11.3885 3.57583 13.153C0.977082 15.8437 1.01458 17.4374 1.52177 18.3112C1.99989 19.1399 2.99739 19.4999 4.30989 19.4999C5.22116 19.4811 6.12706 19.3552 7.00896 19.1249C8.41817 20.2096 10.1171 20.8525 11.8914 20.9725C13.6657 21.0924 15.4357 20.6841 16.9781 19.7989C18.5205 18.9138 19.7661 17.5916 20.5577 15.9991C21.3493 14.4067 21.6514 12.6154 21.4258 10.8515C22.5986 9.63273 23.3786 8.47492 23.644 7.48398C23.8277 6.79773 23.7724 6.19398 23.479 5.68867ZM22.1955 7.09492C21.6227 9.23055 17.6346 12.4677 13.9905 14.5612C7.63333 18.2174 3.33864 18.4537 2.81927 17.5612C2.68239 17.3259 2.75833 16.8824 3.02739 16.3424C3.29389 15.837 3.61723 15.3636 3.99114 14.9315C4.14953 15.3897 4.34486 15.8343 4.57521 16.2609C4.61032 16.328 4.66494 16.3829 4.73188 16.4184C4.79882 16.4539 4.87494 16.4682 4.95021 16.4596C5.48658 16.3935 6.01759 16.2895 6.53927 16.1484C8.52958 15.628 10.9108 14.6034 13.2443 13.2627C15.5777 11.9221 17.6505 10.3884 19.099 8.93617C19.4801 8.55917 19.8344 8.156 20.1593 7.72961C20.2044 7.66883 20.23 7.59583 20.2329 7.5202C20.2357 7.44457 20.2156 7.36985 20.1752 7.30586C19.9225 6.89428 19.6373 6.50365 19.3221 6.13773C20.6543 5.91742 21.888 5.9343 22.1815 6.44148C22.2677 6.58867 22.2724 6.80898 22.1955 7.09586V7.09492Z" fill="#7F7F7F"/>
</svg>
