<svg width="22" height="22" viewBox="0 0 22 22" fill="none" xmlns="http://www.w3.org/2000/svg">
<path d="M4.58325 5.46843H7.47075M10.9999 5.46843H9.39575M7.47075 5.46843H9.39575M7.47075 5.46843V4.58337M9.39575 5.46843C9.05728 6.67881 8.3485 7.82297 7.5395 8.82849M5.477 11C6.13098 10.3987 6.8696 9.66112 7.5395 8.82849M7.5395 8.82849C7.127 8.34487 6.5495 7.5624 6.3845 7.20837M7.5395 8.82849L8.777 10.115" stroke="white" stroke-width="1.25" stroke-linecap="round" stroke-linejoin="round"/>
<path d="M6.43704 15.5629C6.48693 17.1397 6.65856 18.1068 7.24888 18.8261C7.40125 19.0118 7.57148 19.182 7.75714 19.3344C8.7713 20.1667 10.2781 20.1667 13.2916 20.1667C16.3051 20.1667 17.8119 20.1667 18.826 19.3344C19.0117 19.182 19.1819 19.0118 19.3343 18.8261C20.1666 17.812 20.1666 16.3052 20.1666 13.2917C20.1666 10.2782 20.1666 8.77142 19.3343 7.75727C19.1819 7.57161 19.0117 7.40137 18.826 7.249C18.1098 6.66124 17.148 6.48855 15.5833 6.43782M6.43704 15.5629C4.86024 15.513 3.89312 15.3414 3.17381 14.7511C2.98815 14.5987 2.81791 14.4285 2.66555 14.2428C1.83325 13.2287 1.83325 11.7219 1.83325 8.70837C1.83325 5.69485 1.83325 4.18809 2.66555 3.17393C2.81791 2.98827 2.98815 2.81803 3.17381 2.66567C4.18796 1.83337 5.69473 1.83337 8.70825 1.83337C11.7218 1.83337 13.2285 1.83337 14.2427 2.66567C14.4284 2.81803 14.5986 2.98827 14.751 3.17393C15.3413 3.89324 15.5129 4.86036 15.5628 6.43716C15.5628 6.43716 15.5628 6.43716 15.5833 6.43782M6.43704 15.5629L15.5833 6.43782" stroke="white" stroke-width="1.25"/>
<path d="M11.9165 17.4167L12.6804 15.5834M16.4998 17.4167L15.7359 15.5834M12.6804 15.5834L14.2082 11.9167L15.7359 15.5834M12.6804 15.5834H15.7359" stroke="white" stroke-width="1.25" stroke-linecap="round" stroke-linejoin="round"/>
</svg>
