<svg width="182" height="55" viewBox="0 0 182 55" fill="none" xmlns="http://www.w3.org/2000/svg">
<path d="M18.3637 33.3321H22.6919C22.5087 34.5 22.0164 35.542 21.2148 36.458C20.4362 37.3741 19.3713 38.0954 18.0202 38.6221C16.6691 39.1489 15.0202 39.4122 13.0737 39.4122C10.8981 39.4122 8.97443 39.0687 7.30268 38.3817C5.63093 37.6718 4.32559 36.6527 3.38667 35.3244C2.44774 33.9962 1.97828 32.3932 1.97828 30.5153C1.97828 28.6374 2.43629 27.0344 3.35232 25.7062C4.26834 24.355 5.53933 23.3245 7.16528 22.6146C8.81413 21.9046 10.7378 21.5497 12.9363 21.5497C15.1805 21.5497 17.0469 21.9046 18.5355 22.6146C20.024 23.3245 21.1232 24.4008 21.8332 25.8436C22.566 27.2634 22.8751 29.084 22.7606 31.3054H6.47826C6.59276 32.1756 6.91337 32.9657 7.44009 33.6756C7.9897 34.3855 8.72253 34.9466 9.63855 35.3588C10.5775 35.771 11.6882 35.9771 12.9706 35.9771C14.3904 35.9771 15.5698 35.7367 16.5088 35.2557C17.4706 34.7519 18.0889 34.1107 18.3637 33.3321ZM12.7301 24.9504C11.0813 24.9504 9.74161 25.3168 8.71108 26.0497C7.68054 26.7596 7.01642 27.6413 6.71872 28.6947H18.3294C18.2149 27.5497 17.6652 26.6451 16.6805 25.981C15.7187 25.2939 14.4019 24.9504 12.7301 24.9504ZM34.7253 36.3893C32.8703 36.3893 31.233 36.1145 29.8131 35.5649C28.4162 34.9924 27.3284 34.1565 26.5498 33.0573C25.7711 31.958 25.3818 30.6298 25.3818 29.0726C25.3818 27.5382 25.7597 26.21 26.5154 25.0878C27.2711 23.9657 28.3475 23.0955 29.7444 22.4772C31.1642 21.8588 32.8245 21.5497 34.7253 21.5497C35.252 21.5497 35.7558 21.584 36.2367 21.6527C36.7406 21.7214 37.2329 21.813 37.7138 21.9275L46.3359 21.9619V25.3283C45.168 25.3512 43.9772 25.2138 42.7634 24.9161C41.5726 24.5955 40.5192 24.252 39.6031 23.8855L39.5001 23.6451C40.2787 24.0115 41.0115 24.4695 41.6986 25.0191C42.3856 25.5459 42.9352 26.1642 43.3474 26.8741C43.7825 27.5611 44.0001 28.3626 44.0001 29.2787C44.0001 30.7672 43.6222 32.0496 42.8665 33.126C42.1108 34.1794 41.0344 34.9924 39.6375 35.5649C38.2635 36.1145 36.6261 36.3893 34.7253 36.3893ZM40.4619 46.042V45.2175C40.4619 44.1641 40.1184 43.4313 39.4314 43.0191C38.7673 42.6069 37.8512 42.4008 36.6833 42.4008H31.3589C30.3284 42.4008 29.4581 42.3206 28.7482 42.1603C28.0612 42 27.5116 41.771 27.0994 41.4733C26.6872 41.1756 26.3895 40.8206 26.2063 40.4084C26.023 40.0191 25.9314 39.5954 25.9314 39.1374C25.9314 38.2214 26.2292 37.5344 26.8246 37.0763C27.42 36.5954 28.2215 36.2748 29.2291 36.1145C30.2368 35.9542 31.3475 35.9199 32.5612 36.0115L34.7253 36.3893C33.2826 36.4351 32.2062 36.5611 31.4963 36.7672C30.8093 36.9504 30.4658 37.3283 30.4658 37.9008C30.4658 38.2443 30.6032 38.5191 30.878 38.7252C31.1528 38.9084 31.5421 39 32.0459 39H37.6451C39.1795 39 40.4848 39.1603 41.5612 39.4809C42.6604 39.8244 43.4963 40.3855 44.0688 41.1641C44.6413 41.9656 44.9276 43.0534 44.9276 44.4275V46.042H40.4619ZM34.7253 33.1603C35.71 33.1603 36.5688 33 37.3016 32.6794C38.0574 32.3588 38.6413 31.9008 39.0535 31.3054C39.4657 30.6871 39.6719 29.9542 39.6719 29.1069C39.6719 28.2367 39.4657 27.4924 39.0535 26.8741C38.6413 26.2558 38.0688 25.7863 37.336 25.4657C36.6032 25.1222 35.7329 24.9504 34.7253 24.9504C33.7406 24.9504 32.8703 25.1222 32.1146 25.4657C31.3589 25.7863 30.7749 26.2558 30.3627 26.8741C29.9505 27.4924 29.7444 28.2367 29.7444 29.1069C29.7444 29.9542 29.9505 30.6871 30.3627 31.3054C30.7749 31.9008 31.3475 32.3588 32.0803 32.6794C32.836 33 33.7177 33.1603 34.7253 33.1603ZM47.8292 21.9275H52.5696L59.9551 38.313L56.1078 39L47.8292 21.9275ZM68.7146 21.9275L56.8979 45.8702H52.2605L57.3101 36.458L63.9398 21.9275H68.7146ZM83.8718 39.4122C82.3603 39.4122 81.0664 39.1489 79.9901 38.6221C78.9367 38.0725 78.0779 37.3626 77.4138 36.4924C76.7497 35.5992 76.2573 34.626 75.9367 33.5725C75.6161 32.5191 75.4558 31.4886 75.4558 30.4809C75.4558 29.2214 75.6046 28.0535 75.9023 26.9771C76.2229 25.9008 76.7153 24.9619 77.3794 24.1604C78.0435 23.3359 78.9023 22.6947 79.9557 22.2367C81.0321 21.7787 82.3374 21.5497 83.8718 21.5497C85.5893 21.5497 87.1351 21.9275 88.5092 22.6833C89.8832 23.439 90.971 24.4924 91.7725 25.8436C92.5969 27.1718 93.0091 28.7176 93.0091 30.4809C93.0091 32.2901 92.5969 33.8702 91.7725 35.2214C90.9481 36.5496 89.8488 37.5802 88.4748 38.313C87.1008 39.0458 85.5664 39.4122 83.8718 39.4122ZM82.429 35.9428C83.6428 35.9428 84.6962 35.7138 85.5893 35.2557C86.5053 34.7977 87.2038 34.168 87.6847 33.3664C88.1885 32.542 88.4405 31.5802 88.4405 30.4809C88.4405 28.8321 87.9137 27.5039 86.8603 26.4962C85.8298 25.4886 84.3527 24.9848 82.429 24.9848C81.2153 24.9848 80.1046 25.2023 79.097 25.6375C78.1122 26.0726 77.3336 26.7023 76.7611 27.5268C76.1886 28.3283 75.9023 29.313 75.9023 30.4809C75.9023 31.5802 76.1657 32.542 76.6924 33.3664C77.2191 34.168 77.9748 34.7977 78.9596 35.2557C79.9443 35.7138 81.1008 35.9428 82.429 35.9428ZM71.4367 21.9275H75.6962L75.9023 26.4619V45.8702H71.4367V21.9275ZM95.2146 21.9275H108.474V25.397H95.2146V21.9275ZM99.6115 17.2558H104.077V39H99.6115V17.2558ZM121.264 39.4122C119.111 39.4122 117.211 39.0687 115.562 38.3817C113.936 37.6947 112.665 36.6985 111.749 35.3931C110.833 34.0649 110.375 32.439 110.375 30.5153C110.375 28.5916 110.833 26.9657 111.749 25.6375C112.665 24.2863 113.936 23.2672 115.562 22.5802C117.211 21.8932 119.111 21.5497 121.264 21.5497C123.417 21.5497 125.295 21.8932 126.898 22.5802C128.524 23.2672 129.794 24.2863 130.711 25.6375C131.627 26.9657 132.085 28.5916 132.085 30.5153C132.085 32.439 131.627 34.0649 130.711 35.3931C129.794 36.6985 128.524 37.6947 126.898 38.3817C125.295 39.0687 123.417 39.4122 121.264 39.4122ZM121.264 35.9771C122.455 35.9771 123.52 35.771 124.459 35.3588C125.42 34.9237 126.176 34.3054 126.726 33.5038C127.275 32.6794 127.55 31.6832 127.55 30.5153C127.55 29.3474 127.275 28.3512 126.726 27.5268C126.176 26.6794 125.432 26.0382 124.493 25.6031C123.554 25.168 122.478 24.9504 121.264 24.9504C120.073 24.9504 118.997 25.168 118.035 25.6031C117.073 26.0382 116.306 26.668 115.733 27.4924C115.184 28.3168 114.909 29.3245 114.909 30.5153C114.909 31.6832 115.184 32.6794 115.733 33.5038C116.283 34.3054 117.039 34.9237 118.001 35.3588C118.962 35.771 120.05 35.9771 121.264 35.9771Z" fill="white"/>
<path d="M156.819 39.3779C155.124 39.3779 153.578 39.0115 152.181 38.2786C150.807 37.5229 149.708 36.4809 148.884 35.1527C148.082 33.8015 147.681 32.2443 147.681 30.4809C147.681 28.6718 148.094 27.1031 148.918 25.7749C149.743 24.4466 150.853 23.4161 152.25 22.6833C153.67 21.9275 155.273 21.5497 157.059 21.5497C159.029 21.5497 160.609 21.9504 161.8 22.752C163.013 23.5306 163.895 24.5955 164.445 25.9466C164.994 27.2978 165.269 28.8092 165.269 30.4809C165.269 31.4886 165.109 32.5191 164.788 33.5725C164.468 34.6031 163.975 35.5649 163.311 36.458C162.647 37.3283 161.777 38.0382 160.7 38.5878C159.624 39.1145 158.33 39.3779 156.819 39.3779ZM158.262 35.9428C159.613 35.9428 160.781 35.7138 161.765 35.2557C162.75 34.7977 163.506 34.1565 164.033 33.3321C164.559 32.5077 164.823 31.5573 164.823 30.4809C164.823 29.313 164.548 28.3283 163.998 27.5268C163.471 26.7023 162.716 26.084 161.731 25.6718C160.769 25.2367 159.613 25.0191 158.262 25.0191C156.361 25.0191 154.884 25.5229 153.83 26.5306C152.777 27.5153 152.25 28.8321 152.25 30.4809C152.25 31.5802 152.502 32.542 153.006 33.3664C153.51 34.168 154.208 34.7977 155.101 35.2557C156.017 35.7138 157.071 35.9428 158.262 35.9428ZM164.823 21.9275H169.288V39H165.132C165.132 39 165.097 38.7824 165.029 38.3473C164.983 37.8893 164.937 37.3168 164.891 36.6298C164.846 35.9428 164.823 35.2672 164.823 34.6031V21.9275ZM178.571 14.439V18.355H173.384V14.439H178.571ZM173.727 21.9275H178.193V39H173.727V21.9275Z" fill="white"/>
<rect x="137.891" y="34.3503" width="4.90729" height="4.90729" rx="2.45364" fill="#618B4A"/>
</svg>
